<?xml version="1.0" encoding="UTF-8"?>
<svg version="1.1" xmlns="http://www.w3.org/2000/svg" width="500" height="500">
<path d="M0 0 C16.83 0 33.66 0 51 0 C51.495 1.485 51.495 1.485 52 3 C50.04414675 4.00484204 48.08523763 5.00373805 46.125 6 C44.48917969 6.8353125 44.48917969 6.8353125 42.8203125 7.6875 C40 9 40 9 38 9 C38 9.66 38 10.32 38 11 C37.34 11 36.68 11 36 11 C35.731875 11.556875 35.46375 12.11375 35.1875 12.6875 C34.36944567 14.28055316 33.48979067 15.84295455 32.5625 17.375 C26.49319275 27.57143619 25.01671438 37.32065132 27 49 C27.33 49.99 27.66 50.98 28 52 C41.86 52 55.72 52 70 52 C71.18739 49.62522001 71.12915064 48.16784075 71.1328125 45.51953125 C71.13498779 44.60945313 71.13716309 43.699375 71.1394043 42.76171875 C71.13465088 41.78847656 71.12989746 40.81523437 71.125 39.8125 C71.12089111 38.8225 71.11678223 37.8325 71.11254883 36.8125 C71.74286014 21.27198109 71.74286014 21.27198109 67 7 C64.79529418 5.46287346 64.79529418 5.46287346 62.3125 4.625 C61.10013672 4.14933594 61.10013672 4.14933594 59.86328125 3.6640625 C58.94095703 3.33535156 58.94095703 3.33535156 58 3 C58 2.01 58 1.02 58 0 C72.85 0 87.7 0 103 0 C102 4 102 4 99.78515625 5.484375 C98.88667969 5.90203125 97.98820312 6.3196875 97.0625 6.75 C96.16660156 7.17796875 95.27070313 7.6059375 94.34765625 8.046875 C92 9 92 9 90 9 C90 9.66 90 10.32 90 11 C89.34 11 88.68 11 88 11 C87.58041016 11.86431641 87.58041016 11.86431641 87.15234375 12.74609375 C86.04243382 14.91700233 84.81649273 16.97251212 83.5625 19.0625 C76.31805048 32.17966895 76.84189827 45.67528278 80.578125 59.78125 C82.25870083 65.30242104 85.14640539 69.82842684 88.390625 74.55859375 C90 77 90 77 90 79 C90.66 79 91.32 79 92 79 C92 79.66 92 80.32 92 81 C92.66 81 93.32 81 94 81 C94 81.66 94 82.32 94 83 C94.928125 83.28875 95.85625 83.5775 96.8125 83.875 C100 85 100 85 103 87 C103 88.32 103 89.64 103 91 C87.16 91 71.32 91 55 91 C54.67 89.68 54.34 88.36 54 87 C59.445 86.01 59.445 86.01 65 85 C65 84.34 65 83.68 65 83 C65.66 83 66.32 83 67 83 C67 82.34 67 81.68 67 81 C67.66 81 68.32 81 69 81 C69.34699018 79.25265661 69.67657985 77.50185916 70 75.75 C70.2784375 74.28820312 70.2784375 74.28820312 70.5625 72.796875 C71.16548161 67.56385606 71 62.26764407 71 57 C57.14 57 43.28 57 29 57 C33.1250836 69.37525081 37.42165337 79.75589335 49.5 85.9375 C50.325 86.288125 51.15 86.63875 52 87 C51.505 88.98 51.505 88.98 51 91 C33.51 91 16.02 91 -2 91 C-2 89.68 -2 88.36 -2 87 C-0.0234375 85.54296875 -0.0234375 85.54296875 2.625 84.1875 C11.11788928 79.37726186 15.36246921 73.37788726 18 64 C22.3572124 44.95289011 21.79883185 27.45397217 15 9 C14.34 9 13.68 9 13 9 C13 8.34 13 7.68 13 7 C12.31292969 6.79503906 11.62585938 6.59007812 10.91796875 6.37890625 C10.01691406 6.10949219 9.11585938 5.84007812 8.1875 5.5625 C7.29417969 5.29566406 6.40085937 5.02882812 5.48046875 4.75390625 C3.64526945 4.19612127 1.81966274 3.60655425 0 3 C0 2.01 0 1.02 0 0 Z " fill="#151515" transform="translate(371,206)"/>
<path d="M0 0 C3.17764379 2.71408163 4.68143162 5.01301942 5.34765625 9.16796875 C5.71528651 17.99109506 0.69087423 26.10953561 -4.71484375 32.79296875 C-5.70484375 32.79296875 -6.69484375 32.79296875 -7.71484375 32.79296875 C-7.85019531 31.87257812 -7.98554688 30.9521875 -8.125 30.00390625 C-9.95353761 19.25166715 -12.94866941 7.09530975 -21.71484375 -0.20703125 C-27.72555666 -3.00189581 -32.77628219 -2.05766924 -38.84375 0.06640625 C-39.46121094 0.30617187 -40.07867187 0.5459375 -40.71484375 0.79296875 C-40.71484375 1.45296875 -40.71484375 2.11296875 -40.71484375 2.79296875 C-41.37484375 2.79296875 -42.03484375 2.79296875 -42.71484375 2.79296875 C-43.40104406 4.11635507 -44.06270836 5.45246823 -44.71484375 6.79296875 C-45.08609375 7.51484375 -45.45734375 8.23671875 -45.83984375 8.98046875 C-48.20959558 16.59752819 -46.87366883 25.30770796 -43.45703125 32.40625 C-40.48538245 37.65720011 -37.4873424 41.1567793 -32.71484375 44.79296875 C-32.71484375 45.45296875 -32.71484375 46.11296875 -32.71484375 46.79296875 C-26.65220153 46.13032789 -26.65220153 46.13032789 -20.71484375 44.79296875 C-20.71484375 44.13296875 -20.71484375 43.47296875 -20.71484375 42.79296875 C-17.16588248 39.67818891 -13.29481114 37.45749101 -8.52734375 37.23046875 C-4.09814164 37.88395759 -2.69849937 38.48675576 0.28515625 41.79296875 C5.81329429 50.60980081 7.10616419 57.41841384 6.28515625 67.79296875 C5.27508714 70.92021328 4.09547228 73.02092233 2.28515625 75.79296875 C1.62515625 75.79296875 0.96515625 75.79296875 0.28515625 75.79296875 C0.28515625 76.45296875 0.28515625 77.11296875 0.28515625 77.79296875 C-13.97412866 86.59125093 -32.37944641 88.28931695 -48.71484375 84.79296875 C-59.4558143 81.58539124 -59.4558143 81.58539124 -63.71484375 77.79296875 C-63.71484375 77.13296875 -63.71484375 76.47296875 -63.71484375 75.79296875 C-64.37484375 75.79296875 -65.03484375 75.79296875 -65.71484375 75.79296875 C-67.8538532 72.31707839 -68.16482785 69.84282561 -67.71484375 65.79296875 C-65.40475429 58.32455453 -61.57111944 51.55430545 -57.71484375 44.79296875 C-56.39484375 44.79296875 -55.07484375 44.79296875 -53.71484375 44.79296875 C-53.87984375 45.65921875 -54.04484375 46.52546875 -54.21484375 47.41796875 C-55.53400311 56.96247467 -55.41636273 65.8476312 -51.71484375 74.79296875 C-51.05484375 74.79296875 -50.39484375 74.79296875 -49.71484375 74.79296875 C-49.71484375 75.45296875 -49.71484375 76.11296875 -49.71484375 76.79296875 C-49.05484375 76.79296875 -48.39484375 76.79296875 -47.71484375 76.79296875 C-47.71484375 77.45296875 -47.71484375 78.11296875 -47.71484375 78.79296875 C-47.13734375 78.93734375 -46.55984375 79.08171875 -45.96484375 79.23046875 C-44.60408843 79.57065758 -43.24699465 79.92678365 -41.8984375 80.3125 C-34.10821004 82.02662876 -26.98475357 80.71607832 -19.71484375 77.79296875 C-18.72484375 77.46296875 -17.73484375 77.13296875 -16.71484375 76.79296875 C-16.71484375 76.13296875 -16.71484375 75.47296875 -16.71484375 74.79296875 C-16.05484375 74.79296875 -15.39484375 74.79296875 -14.71484375 74.79296875 C-14.22933879 68.98939053 -14.22933879 68.98939053 -16.58984375 63.85546875 C-18.54081987 61.75413291 -18.54081987 61.75413291 -20.71484375 60.79296875 C-20.71484375 60.13296875 -20.71484375 59.47296875 -20.71484375 58.79296875 C-21.37484375 58.56609375 -22.03484375 58.33921875 -22.71484375 58.10546875 C-26.60143003 56.40508725 -30.35164192 54.39673791 -33.71484375 51.79296875 C-33.71484375 51.13296875 -33.71484375 50.47296875 -33.71484375 49.79296875 C-34.82859375 49.35984375 -34.82859375 49.35984375 -35.96484375 48.91796875 C-38.28224172 47.96994231 -40.4940149 46.94450964 -42.71484375 45.79296875 C-42.71484375 45.13296875 -42.71484375 44.47296875 -42.71484375 43.79296875 C-43.56820313 43.550625 -44.4215625 43.30828125 -45.30078125 43.05859375 C-49.03200569 41.67539384 -52.10269338 39.80443595 -55.33984375 37.54296875 C-55.89929688 37.17300781 -56.45875 36.80304688 -57.03515625 36.421875 C-61.53990385 33.30892442 -64.80343185 29.84148443 -66.39453125 24.51953125 C-66.95378865 18.50192159 -66.47115326 13.30558777 -63.71484375 7.79296875 C-63.05484375 7.79296875 -62.39484375 7.79296875 -61.71484375 7.79296875 C-61.71484375 7.13296875 -61.71484375 6.47296875 -61.71484375 5.79296875 C-61.05484375 5.79296875 -60.39484375 5.79296875 -59.71484375 5.79296875 C-59.71484375 5.13296875 -59.71484375 4.47296875 -59.71484375 3.79296875 C-59.05484375 3.79296875 -58.39484375 3.79296875 -57.71484375 3.79296875 C-57.71484375 3.13296875 -57.71484375 2.47296875 -57.71484375 1.79296875 C-56.17585814 0.99610269 -54.63350591 0.20573734 -53.08984375 -0.58203125 C-52.23132813 -1.02289063 -51.3728125 -1.46375 -50.48828125 -1.91796875 C-35.33899529 -8.95918617 -14.19072098 -9.98845737 0 0 Z " fill="#101010" transform="translate(361.71484375,210.20703125)"/>
<path d="M0 0 C2.48340903 -0.26727014 4.71472068 -0.34866334 7.1953125 -0.29296875 C8.25647781 -0.28660149 8.25647781 -0.28660149 9.33908081 -0.28010559 C11.60143905 -0.26329547 13.86291048 -0.22564128 16.125 -0.1875 C17.65753923 -0.17245607 19.1900924 -0.15876716 20.72265625 -0.14648438 C24.48211318 -0.11338462 28.24090618 -0.06158825 32 0 C30.63268894 2.78496814 29.15277945 5.35178024 27.4375 7.9375 C22.49057226 15.85258438 23.40942772 24.68617473 25.375 33.53125 C27.12625294 40.4486991 29.62808105 46.54776124 33.01171875 52.8359375 C34 55 34 55 34 58 C34.66 58 35.32 58 36 58 C37.7265625 60.3359375 37.7265625 60.3359375 39.625 63.375 C40.25664063 64.37273437 40.88828125 65.37046875 41.5390625 66.3984375 C43 69 43 69 43 71 C43.66 71 44.32 71 45 71 C45.2475 71.78375 45.495 72.5675 45.75 73.375 C47.22216206 76.46654032 47.95081479 76.69320634 51 78 C53.75 80 53.75 80 56 82 C56 82.66 56 83.32 56 84 C57.98 84.66 59.96 85.32 62 86 C62 87.32 62 88.64 62 90 C48.8 90 35.6 90 22 90 C22 85.77471908 22.25624329 84.95481492 25 82 C25.66 82 26.32 82 27 82 C27.22505303 79.52137543 27.43023463 77.04354524 27.625 74.5625 C27.68945312 73.87478516 27.75390625 73.18707031 27.8203125 72.47851562 C28.25787148 66.59881678 27.36977989 63.1640095 26 57 C15.11 57 4.22 57 -7 57 C-7.08934517 70.16490251 -7.08934517 70.16490251 -2 82 C0.87912262 83.93649173 3.86693413 85.51557047 7 87 C6.505 88.485 6.505 88.485 6 90 C-8.52 90 -23.04 90 -38 90 C-38 88.68 -38 87.36 -38 86 C-31.25 82 -31.25 82 -29 82 C-29 81.34 -29 80.68 -29 80 C-28.34 80 -27.68 80 -27 80 C-26.57654297 78.91332031 -26.57654297 78.91332031 -26.14453125 77.8046875 C-25.07833363 75.1919575 -23.90453675 72.6700736 -22.6875 70.125 C-15.21870528 53.70238704 -10.58629377 35.51183325 -6.71484375 17.94140625 C-5.20392534 11.72434854 -3.56694283 5.35041424 0 0 Z M0 9 C-5.05303875 17.91330012 -5.41410455 30.3894329 -6.75 40.375 C-6.95967407 41.91861206 -6.95967407 41.91861206 -7.17358398 43.4934082 C-7.29677002 44.45206787 -7.41995605 45.41072754 -7.546875 46.3984375 C-7.65870117 47.26130371 -7.77052734 48.12416992 -7.88574219 49.01318359 C-7.92344727 49.66883301 -7.96115234 50.32448242 -8 51 C-6.87572365 52.35105145 -6.87572365 52.35105145 -3.94897461 52.11352539 C-2.60008729 52.11336634 -1.25119386 52.10767612 0.09765625 52.09765625 C0.80651474 52.0962413 1.51537323 52.09482635 2.24571228 52.09336853 C4.51801712 52.08775443 6.79022475 52.07519963 9.0625 52.0625 C10.59960796 52.05748681 12.13671745 52.05292359 13.67382812 52.04882812 C17.44925642 52.03778042 21.22461171 52.02050641 25 52 C23.6516811 45.73892341 21.53695569 40.31762986 18.75 34.5625 C18.34740967 33.72428711 17.94481934 32.88607422 17.5300293 32.02246094 C14.76941593 26.36549347 11.89294732 20.97132607 8 16 C7.46246094 15.31292969 6.92492187 14.62585938 6.37109375 13.91796875 C4.29271082 11.35881751 4.29271082 11.35881751 2 9 C1.34 9 0.68 9 0 9 Z " fill="#141414" transform="translate(60,207)"/>
<path d="M0 0 C17.16 0 34.32 0 52 0 C51.67 0.99 51.34 1.98 51 3 C49.02 3.33 47.04 3.66 45 4 C45 4.66 45 5.32 45 6 C43.2421875 6.94401042 41.484375 7.88802083 39.7265625 8.83203125 C37.69497635 10.04763493 37.69497635 10.04763493 36 13 C35.34 13 34.68 13 34 13 C34 13.66 34 14.32 34 15 C33.34 15 32.68 15 32 15 C31.8659375 15.59296875 31.731875 16.1859375 31.59375 16.796875 C31 19 31 19 29.5 22.25 C24.7309602 34.8656373 26.51661179 50.52160294 31.625 62.625 C32.07101563 63.58664062 32.51703125 64.54828125 32.9765625 65.5390625 C34 68 34 68 34 71 C34.66 71 35.32 71 36 71 C36 71.99 36 72.98 36 74 C36.66 74 37.32 74 38 74 C38.556875 74.7425 39.11375 75.485 39.6875 76.25 C43.16367757 80.38383278 46.3577798 82.72705903 51.72265625 83.28125 C56.30065154 83.33054201 60.52580844 82.99336744 65 82 C65 81.34 65 80.68 65 80 C65.66 80 66.32 80 67 80 C67 79.34 67 78.68 67 78 C67.66 78 68.32 78 69 78 C69.28875 77.13375 69.5775 76.2675 69.875 75.375 C70.58544416 73.24366752 71.31247177 71.11772677 72.0625 69 C77.29748784 52.24803892 75.48286871 27.24655705 68.51171875 11.3125 C65.36927749 6.50545807 61.418095 4.51202651 56 3 C56 2.01 56 1.02 56 0 C66.23 0 76.46 0 87 0 C85 5 85 5 84.18798828 6.91308594 C82.10961811 12.00994375 81.31517161 16.78333535 80.875 22.25 C80.75499634 23.579104 80.75499634 23.579104 80.63256836 24.93505859 C79.87770911 33.98562745 79.63433253 43.06222713 79.51708984 52.14160156 C79.28468478 62.5743397 77.96299171 73.851999 70.36328125 81.6875 C60.44978446 90.63330188 46.77097309 90.59936435 34.03125 90.109375 C22.91772987 89.51095469 22.91772987 89.51095469 18 88 C14.41436605 83.41778584 15.54878737 76.49164946 16 71 C16.32329612 68.57553943 16.69876079 66.16251849 17.07885742 63.74633789 C18.67918268 53.54785933 19.33323551 43.50317149 19.375 33.1875 C19.39530273 31.2839978 19.39530273 31.2839978 19.41601562 29.34204102 C19.38368474 22.58443711 19.23067666 16.09377565 16 10 C13.46900795 7.58855519 13.46900795 7.58855519 11 6 C11 5.34 11 4.68 11 4 C7.7 3.67 4.4 3.34 1 3 C0.67 2.01 0.34 1.02 0 0 Z " fill="#121212" transform="translate(205,207)"/>
<path d="M0 0 C13.86 0 27.72 0 42 0 C42 0.99 42 1.98 42 3 C40.7934375 3.61875 40.7934375 3.61875 39.5625 4.25 C36.71712759 5.81118368 36.71712759 5.81118368 36 9.0625 C36 19.45916341 41.20798777 27.05615094 46.88085938 35.36083984 C48.46604085 37.68259124 50.01163456 40.03023915 51.5625 42.375 C52.37374662 43.58417518 53.18568097 44.7928918 54 46 C60.00244183 33.94199738 66.26240513 19.64506663 66 6 C62.7 4.68 59.4 3.36 56 2 C56 1.34 56 0.68 56 0 C70.85 0 85.7 0 101 0 C100.67 0.99 100.34 1.98 100 3 C97.3046875 4.02734375 97.3046875 4.02734375 93.875 4.9375 C88.68537037 6.42595421 84.45707738 7.96108361 80 11 C79.67 11.66 79.34 12.32 79 13 C78.34 13 77.68 13 77 13 C77 13.66 77 14.32 77 15 C75.68799596 16.35432675 74.35368596 17.68733482 73 19 C72.67 19.66 72.34 20.32 72 21 C71.34 21 70.68 21 70 21 C69.855625 21.598125 69.71125 22.19625 69.5625 22.8125 C69.1127561 24.56150404 68.57107659 26.28677023 68 28 C67.34 28 66.68 28 66 28 C65.82984375 29.04027344 65.82984375 29.04027344 65.65625 30.1015625 C64.91649029 33.36883457 63.76662204 36.27472164 62.5 39.375 C58.27996055 50.2352168 57.10412027 62.78221566 61 74 C62.24199134 76.69811912 63.562359 79.3218133 64.9765625 81.93359375 C66 84 66 84 66 86 C66.66 86 67.32 86 68 86 C68 87.32 68 88.64 68 90 C53.81 90 39.62 90 25 90 C24.67 89.01 24.34 88.02 24 87 C24.87011719 86.36384766 24.87011719 86.36384766 25.7578125 85.71484375 C34.8074697 78.92013413 42.48280011 71.2854877 44.6015625 59.71484375 C45.53549674 50.2560446 43.84090963 44.00742339 39.0234375 35.91796875 C38 34 38 34 38 32 C37.34 32 36.68 32 36 32 C34.70925452 30.35912126 33.49238973 28.65981448 32.3125 26.9375 C23.57076041 14.64541491 13.76546854 8.55582711 0 3 C0 2.01 0 1.02 0 0 Z " fill="#151515" transform="translate(102,207)"/>
<path d="M0 0 C10.23 0 20.46 0 31 0 C29 5 29 5 28.18798828 6.91308594 C26.10961811 12.00994375 25.31517161 16.78333535 24.875 22.25 C24.75499634 23.579104 24.75499634 23.579104 24.63256836 24.93505859 C23.87770911 33.98562745 23.63433253 43.06222713 23.51708984 52.14160156 C23.2829628 62.65164017 21.91279738 73.77674547 14.36328125 81.72265625 C11.10942222 84.70830131 8.57253521 86.72287665 4 87 C4 85.68 4 84.36 4 83 C6.475 82.505 6.475 82.505 9 82 C9 81.34 9 80.68 9 80 C9.66 80 10.32 80 11 80 C11 79.34 11 78.68 11 78 C11.66 78 12.32 78 13 78 C13.28875 77.13375 13.5775 76.2675 13.875 75.375 C14.58544416 73.24366752 15.31247177 71.11772677 16.0625 69 C21.29748784 52.24803892 19.48286871 27.24655705 12.51171875 11.3125 C9.36927749 6.50545807 5.418095 4.51202651 0 3 C0 2.01 0 1.02 0 0 Z " fill="#1A1A1A" transform="translate(261,207)"/>
<path d="M0 0 C3.17764379 2.71408163 4.68143162 5.01301942 5.34765625 9.16796875 C5.71528651 17.99109506 0.69087423 26.10953561 -4.71484375 32.79296875 C-5.70484375 32.79296875 -6.69484375 32.79296875 -7.71484375 32.79296875 C-7.85019531 31.87257812 -7.98554688 30.9521875 -8.125 30.00390625 C-9.94557437 19.29849288 -12.9321919 7.01983656 -21.71484375 -0.20703125 C-26.70263719 -2.21121734 -31.49668122 -2.54502164 -36.71484375 -1.20703125 C-36.71484375 -1.86703125 -36.71484375 -2.52703125 -36.71484375 -3.20703125 C-38.36484375 -3.53703125 -40.01484375 -3.86703125 -41.71484375 -4.20703125 C-41.71484375 -4.53703125 -41.71484375 -4.86703125 -41.71484375 -5.20703125 C-27.64841306 -7.57611431 -12.36785942 -8.70539535 0 0 Z " fill="#191919" transform="translate(361.71484375,210.20703125)"/>
<path d="M0 0 C14.85 0 29.7 0 45 0 C44.67 0.99 44.34 1.98 44 3 C41.3046875 4.02734375 41.3046875 4.02734375 37.875 4.9375 C32.68537037 6.42595421 28.45707738 7.96108361 24 11 C23.67 11.66 23.34 12.32 23 13 C22.34 13 21.68 13 21 13 C21 13.66 21 14.32 21 15 C19.68799596 16.35432675 18.35368596 17.68733482 17 19 C16.67 19.66 16.34 20.32 16 21 C15.34 21 14.68 21 14 21 C13.7834375 21.8971875 13.7834375 21.8971875 13.5625 22.8125 C13.1127561 24.56150404 12.57107659 26.28677023 12 28 C11.34 28 10.68 28 10 28 C9.87753906 28.70511719 9.75507813 29.41023438 9.62890625 30.13671875 C8.96594799 33.15503183 8.01824425 35.91889442 6.9375 38.8125 C6.57527344 39.78832031 6.21304688 40.76414063 5.83984375 41.76953125 C5.56269531 42.50558594 5.28554687 43.24164063 5 44 C4.34 42.68 3.68 41.36 3 40 C2.01 40.495 2.01 40.495 1 41 C3.00672462 33.91936192 5.38570333 27.01241091 7.9140625 20.1015625 C9.65257987 15.13615678 10.10197203 11.30254556 10 6 C5.05 4.02 5.05 4.02 0 2 C0 1.34 0 0.68 0 0 Z " fill="#171717" transform="translate(158,207)"/>
<path d="M0 0 C1.32 0 2.64 0 4 0 C3.835 0.86625 3.67 1.7325 3.5 2.625 C2.18084064 12.16950592 2.29848102 21.05466245 6 30 C6.66 30 7.32 30 8 30 C8 30.66 8 31.32 8 32 C8.66 32 9.32 32 10 32 C10 32.66 10 33.32 10 34 C13.85185892 35.10194933 17.7866427 35.55677861 21.75 36.0625 C22.44738281 36.15337891 23.14476562 36.24425781 23.86328125 36.33789062 C25.57525048 36.56068114 27.28758987 36.78062407 29 37 C29 37.33 29 37.66 29 38 C24.545 38.495 24.545 38.495 20 39 C23.96 39.33 27.92 39.66 32 40 C32 40.33 32 40.66 32 41 C3.39555151 41.36620204 3.39555151 41.36620204 -6 33 C-6 32.34 -6 31.68 -6 31 C-6.66 31 -7.32 31 -8 31 C-10.13900945 27.52410964 -10.4499841 25.04985686 -10 21 C-7.68991054 13.53158578 -3.85627569 6.7613367 0 0 Z " fill="#1B1B1B" transform="translate(304,255)"/>
<path d="M0 0 C1.32 0 2.64 0 4 0 C3.40411392 7.29960447 0.98529896 12.42477612 -4.4375 17.375 C-7.19984139 19.61344906 -9.36291604 20.77957067 -13 21 C-13 19.68 -13 18.36 -13 17 C-11.35 16.67 -9.7 16.34 -8 16 C-8 15.34 -8 14.68 -8 14 C-7.34 14 -6.68 14 -6 14 C-6 13.34 -6 12.68 -6 12 C-5.34 12 -4.68 12 -4 12 C-3.71125 11.13375 -3.4225 10.2675 -3.125 9.375 C-2.08333333 6.25 -1.04166667 3.125 0 0 Z " fill="#3A3A3A" transform="translate(278,273)"/>
<path d="M0 0 C0.33 0.99 0.66 1.98 1 3 C1.66 3 2.32 3 3 3 C1.68 10.59 0.36 18.18 -1 26 C-1.33 26 -1.66 26 -2 26 C-2.33 24.35 -2.66 22.7 -3 21 C-3.66 21.33 -4.32 21.66 -5 22 C-3.60695059 14.59225491 -1.88100377 7.29829463 0 0 Z " fill="#363636" transform="translate(56,215)"/>
<path d="M0 0 C1.32 0.33 2.64 0.66 4 1 C3.24029922 4.35867712 2.12906745 7.52123658 0.9375 10.75 C0.57527344 11.73484375 0.21304688 12.7196875 -0.16015625 13.734375 C-0.43730469 14.48203125 -0.71445313 15.2296875 -1 16 C-1.66 14.68 -2.32 13.36 -3 12 C-3.99 12.495 -3.99 12.495 -5 13 C-4.54803755 11.39402675 -4.08817673 9.79027492 -3.625 8.1875 C-3.36976563 7.29417969 -3.11453125 6.40085938 -2.8515625 5.48046875 C-2 3 -2 3 0 0 Z " fill="#414141" transform="translate(164,235)"/>
<path d="M0 0 C1.32 0 2.64 0 4 0 C3.25 6.625 3.25 6.625 1 10 C0.34 9.34 -0.32 8.68 -1 8 C-0.96712417 5.27130593 -0.43602229 2.7033382 0 0 Z " fill="#323232" transform="translate(278,273)"/>
<path d="M0 0 C0.33 0.99 0.66 1.98 1 3 C1.66 3 2.32 3 3 3 C2.67 5.64 2.34 8.28 2 11 C1.34 10.01 0.68 9.02 0 8 C-0.66 8.99 -1.32 9.98 -2 11 C-1.40049704 7.31733897 -0.75241109 3.65456815 0 0 Z " fill="#585858" transform="translate(56,215)"/>
<path d="M0 0 C1.32 0 2.64 0 4 0 C3.67 1.98 3.34 3.96 3 6 C1.33333333 6 -0.33333333 6 -2 6 C-1.34 4.02 -0.68 2.04 0 0 Z " fill="#545454" transform="translate(304,255)"/>
<path d="M0 0 C2.64 0 5.28 0 8 0 C7.67 1.32 7.34 2.64 7 4 C5.68 4.33 4.36 4.66 3 5 C3 4.01 3 3.02 3 2 C2.01 1.34 1.02 0.68 0 0 Z " fill="#454545" transform="translate(466,206)"/>
</svg>
